<svg id="visual" viewBox="0 0 900 600" width="900" height="600" xmlns="http://www.w3.org/2000/svg" xmlns:xlink="http://www.w3.org/1999/xlink" version="1.1"><rect x="0" y="0" width="900" height="600" fill="#FFFFFF"></rect><defs><linearGradient id="grad1_0" x1="33.3%" y1="100%" x2="100%" y2="0%"><stop offset="20%" stop-color="#ffffff" stop-opacity="1"></stop><stop offset="80%" stop-color="#ffffff" stop-opacity="1"></stop></linearGradient></defs><defs><linearGradient id="grad2_0" x1="0%" y1="100%" x2="66.7%" y2="0%"><stop offset="20%" stop-color="#ffffff" stop-opacity="1"></stop><stop offset="80%" stop-color="#ffffff" stop-opacity="1"></stop></linearGradient></defs><g transform="translate(900, 600)"><path d="M-378.6 0C-359.8 -16.9 -341.1 -33.9 -340.8 -54C-340.4 -74.1 -358.6 -97.4 -358.5 -116.5C-358.5 -135.6 -340.3 -150.5 -328.8 -167.5C-317.2 -184.5 -312.3 -203.5 -301.8 -219.2C-291.2 -235 -275 -247.4 -258.1 -258.1C-241.2 -268.7 -223.8 -277.6 -206.3 -284C-188.9 -290.4 -171.4 -294.3 -157.5 -309.2C-143.6 -324 -133.3 -349.8 -117 -360.1C-100.7 -370.3 -78.4 -364.9 -57.9 -365.4C-37.4 -365.9 -18.7 -372.3 0 -378.6L0 0Z" fill="#8a0015"></path></g><g transform="translate(0, 0)"><path d="M378.6 0C368.4 18.4 358.2 36.9 355.6 56.3C352.9 75.8 357.8 96.3 354.7 115.3C351.7 134.2 340.6 151.7 328.8 167.5C317 183.3 304.5 197.5 293.7 213.4C282.8 229.2 273.7 246.6 261.6 261.6C249.6 276.6 234.7 289.2 219.8 302.6C205 316 190.2 330.3 171.9 337.3C153.6 344.4 131.8 344.2 111.9 344.3C91.9 344.4 73.9 344.9 55.5 350.6C37.2 356.4 18.6 367.5 0 378.6L0 0Z" fill="#8a0015"></path></g></svg>